<?xml version="1.0" encoding="UTF-8" standalone="no"?>
<!-- Created with Inkscape (http://www.inkscape.org/) -->

<svg
   width="210mm"
   height="297mm"
   viewBox="0 0 210 297"
   version="1.1"
   id="svg1"
   inkscape:version="1.3.2 (091e20e, 2023-11-25, custom)"
   sodipodi:docname="game buttons.svg"
   xmlns:inkscape="http://www.inkscape.org/namespaces/inkscape"
   xmlns:sodipodi="http://sodipodi.sourceforge.net/DTD/sodipodi-0.dtd"
   xmlns:xlink="http://www.w3.org/1999/xlink"
   xmlns="http://www.w3.org/2000/svg"
   xmlns:svg="http://www.w3.org/2000/svg">
  <sodipodi:namedview
     id="namedview1"
     pagecolor="#505050"
     bordercolor="#eeeeee"
     borderopacity="1"
     inkscape:showpageshadow="0"
     inkscape:pageopacity="0"
     inkscape:pagecheckerboard="0"
     inkscape:deskcolor="#d1d1d1"
     inkscape:document-units="mm"
     inkscape:zoom="3.6916947"
     inkscape:cx="28.983978"
     inkscape:cy="178.91512"
     inkscape:window-width="2400"
     inkscape:window-height="1271"
     inkscape:window-x="-9"
     inkscape:window-y="-9"
     inkscape:window-maximized="1"
     inkscape:current-layer="layer1" />
  <defs
     id="defs1">
    <linearGradient
       id="linearGradient24"
       inkscape:collect="always">
      <stop
         style="stop-color:#e44955;stop-opacity:1;"
         offset="0"
         id="stop24" />
      <stop
         style="stop-color:#0a374c;stop-opacity:1;"
         offset="0.74313027"
         id="stop25" />
    </linearGradient>
    <linearGradient
       id="linearGradient16"
       inkscape:collect="always">
      <stop
         style="stop-color:#0a374c;stop-opacity:1;"
         offset="0"
         id="stop16" />
      <stop
         style="stop-color:#e44955;stop-opacity:1;"
         offset="1"
         id="stop17" />
    </linearGradient>
    <linearGradient
       id="paint0_linear_2461_19007"
       x1="12"
       x2="12"
       y1="3.0580001"
       y2="21.75"
       gradientUnits="userSpaceOnUse"
       gradientTransform="matrix(0.26458333,0,0,0.26458333,28.013104,30.509606)">
      <stop
         stop-color="#854D9C"
         id="stop1"
         offset="0"
         style="stop-color:#e44955;stop-opacity:1;" />
      <stop
         offset="0.74313021"
         stop-color="#CD4ED3"
         id="stop2"
         style="stop-color:#0a374c;stop-opacity:1;" />
    </linearGradient>
    <linearGradient
       inkscape:collect="always"
       xlink:href="#linearGradient16"
       id="linearGradient17"
       x1="39.570691"
       y1="42.644457"
       x2="44.553753"
       y2="42.644457"
       gradientUnits="userSpaceOnUse" />
    <linearGradient
       inkscape:collect="always"
       xlink:href="#linearGradient16"
       id="linearGradient18"
       gradientUnits="userSpaceOnUse"
       x1="39.570691"
       y1="42.644457"
       x2="44.553753"
       y2="42.644457" />
    <linearGradient
       inkscape:collect="always"
       xlink:href="#linearGradient16"
       id="linearGradient19"
       gradientUnits="userSpaceOnUse"
       x1="39.570691"
       y1="42.644457"
       x2="44.553753"
       y2="42.644457" />
    <linearGradient
       inkscape:collect="always"
       xlink:href="#linearGradient16"
       id="linearGradient20"
       gradientUnits="userSpaceOnUse"
       x1="39.570691"
       y1="42.644457"
       x2="44.553753"
       y2="42.644457" />
    <linearGradient
       inkscape:collect="always"
       xlink:href="#linearGradient16"
       id="linearGradient21"
       gradientUnits="userSpaceOnUse"
       x1="39.570691"
       y1="42.644457"
       x2="44.553753"
       y2="42.644457" />
    <linearGradient
       inkscape:collect="always"
       xlink:href="#linearGradient16"
       id="linearGradient22"
       gradientUnits="userSpaceOnUse"
       x1="39.570691"
       y1="42.644457"
       x2="44.553753"
       y2="42.644457" />
    <linearGradient
       inkscape:collect="always"
       xlink:href="#linearGradient24"
       id="linearGradient25"
       x1="28.390366"
       y1="42.407347"
       x2="33.400551"
       y2="42.407347"
       gradientUnits="userSpaceOnUse" />
  </defs>
  <g
     inkscape:label="Vrstva 1"
     inkscape:groupmode="layer"
     id="layer1">
    <rect
       style="fill:#a9a9a9;fill-opacity:1;stroke-width:1.003"
       id="rect2"
       width="7.8720179"
       height="7.7870679"
       x="27.252083"
       y="29.897917"
       ry="2.054754"
       inkscape:export-filename="restart.png"
       inkscape:export-xdpi="96"
       inkscape:export-ydpi="96" />
    <rect
       style="fill:#a9a9a9;fill-opacity:1;stroke-width:1.003"
       id="rect2-6"
       width="7.8720179"
       height="7.7870679"
       x="37.696194"
       y="38.69717"
       ry="2.054754"
       inkscape:export-filename="nextLevel.png"
       inkscape:export-xdpi="96"
       inkscape:export-ydpi="96" />
    <g
       id="g8"
       style="fill:url(#linearGradient17)">
      <g
         id="g7"
         style="fill:url(#linearGradient17)"
         transform="translate(5.1602317,-3.5297418)">
        <g
           id="g5"
           style="fill:url(#linearGradient20)"
           transform="translate(-4.686792,3.4324858)" />
        <g
           id="g22"
           style="fill:url(#linearGradient22)"
           transform="translate(-0.44268895,0.07294327)">
          <circle
             cx="41.601452"
             cy="42.615017"
             r="2.2146943"
             fill="none"
             stroke="#000000"
             stroke-linecap="round"
             stroke-linejoin="round"
             stroke-width="0.553673"
             id="circle1"
             style="fill:url(#linearGradient18);stroke-width:0.354;stroke-dasharray:none"
             transform="translate(-4.686792,3.4324858)" />
          <polyline
             fill="none"
             stroke="#000000"
             stroke-linecap="round"
             stroke-linejoin="round"
             stroke-width="24"
             points="88 160 120 128 88 96"
             id="polyline1"
             transform="matrix(0.02306973,0,0,0.02306973,33.961735,43.094576)"
             style="fill:url(#linearGradient19);stroke-width:24.0142;stroke-dasharray:none" />
          <polyline
             fill="none"
             stroke="#000000"
             stroke-linecap="round"
             stroke-linejoin="round"
             stroke-width="24"
             points="144 160 176 128 144 96"
             id="polyline2"
             transform="matrix(0.02306973,0,0,0.02306973,33.961734,43.094576)"
             style="fill:url(#linearGradient21)" />
        </g>
      </g>
    </g>
    <rect
       style="fill:#a9a9a9;fill-opacity:1;stroke-width:1.003"
       id="rect2-61"
       width="7.8720179"
       height="7.7870679"
       x="26.95945"
       y="38.513813"
       ry="2.054754"
       inkscape:export-filename="back.png"
       inkscape:export-xdpi="96"
       inkscape:export-ydpi="96" />
    <path
       d="m 28.47167,41.759889 1.722292,-1.487254 c 0.150756,-0.130194 0.38836,-0.0245 0.38836,0.177742 v 0.783362 c 1.571835,0.01799 2.818229,0.333027 2.818229,1.822636 0,0.60123 -0.387317,1.196854 -0.815458,1.508267 -0.133601,0.09718 -0.324008,-0.02477 -0.274749,-0.182312 0.443713,-1.419015 -0.210457,-1.79574 -1.728022,-1.817585 v 0.860301 c 0,0.202559 -0.237784,0.307786 -0.38836,0.177738 L 28.47167,42.115381 c -0.10833,-0.09357 -0.10848,-0.261792 0,-0.355492 z"
       id="path1-7"
       style="stroke-width:0.0100204;fill:url(#linearGradient25)" />
    <path
       fill="url(#paint0_linear_2461_19007)"
       fill-rule="evenodd"
       d="m 32.871912,31.318601 c 0.10959,0 0.198437,0.08884 0.198437,0.198438 v 1.122531 c 0,0.109593 -0.08885,0.198438 -0.198437,0.198438 h -1.122548 c -0.10959,0 -0.198437,-0.08884 -0.198437,-0.198438 0,-0.109595 0.08885,-0.198437 0.198437,-0.198437 h 0.624523 c -0.752846,-0.593482 -1.847586,-0.542928 -2.542175,0.151664 -0.749118,0.74912 -0.749118,1.963664 0,2.712778 0.749115,0.749115 1.963663,0.749115 2.712778,0 0.501888,-0.501861 0.667782,-1.21277 0.496729,-1.8533 -0.02828,-0.105886 0.03463,-0.214656 0.14052,-0.242914 0.105886,-0.02828 0.21463,0.03463 0.242914,0.14052 0.20611,0.771763 0.0066,1.630231 -0.599519,2.236338 -0.904108,0.904108 -2.369953,0.904108 -3.274055,0 -0.904105,-0.904108 -0.904105,-2.369952 0,-3.274055 0.855136,-0.855138 2.212811,-0.901451 3.122395,-0.138943 v -0.656182 c 0,-0.109596 0.08882,-0.198438 0.198438,-0.198438 z"
       clip-rule="evenodd"
       id="path1"
       style="fill:url(#paint0_linear_2461_19007);stroke-width:0.264583" />
  </g>
</svg>
